 <svg
                    t="1699192493318"
                    viewBox="0 0 1365 1024"
                    version="1.1"
                    xmlns="http://www.w3.org/2000/svg"
                    p-id="41914"
                  >
                    <path
                      d="M0 0m326.980262 0l653.960525 0q326.980262 0 326.980262 326.980262l0 326.980262q0 326.980262-326.980262 326.980263l-653.960525 0q-326.980262 0-326.980262-326.980263l0-326.980262q0-326.980262 326.980262-326.980262Z"
                      fill="#8E8E8E"
                      p-id="41915"
                    ></path>
                    <path
                      d="M398.098469 694.833057a471.178558 471.178558 0 0 1-1.634901 50.273216 49.047039 49.047039 0 0 1-12.75223 29.509968 55.750135 55.750135 0 0 1-43.07965 18.39264 64.415112 64.415112 0 0 1-44.714551-18.39264 49.53751 49.53751 0 0 1-13.569681-29.509968 485.483944 485.483944 0 0 1-1.471411-50.273216v-408.725328a127.522302 127.522302 0 0 1 15.204582-79.047478 60.409603 60.409603 0 0 1 43.897101-19.128345 59.019937 59.019937 0 0 1 43.079649 18.392639 50.273215 50.273215 0 0 1 13.569681 30.32742 459.489014 459.489014 0 0 1 1.634901 49.455764z m629.437005-202.727762a300.167881 300.167881 0 0 1-88.202926 233.872632 262.40166 262.40166 0 0 1-182.781966 57.793762h-130.792105a305.563055 305.563055 0 0 1-55.259664-3.515038 61.96276 61.96276 0 0 1-32.698027-21.008482 147.141118 147.141118 0 0 1-11.199074-75.04197v-386.981141a339.242022 339.242022 0 0 1 2.370607-52.970802 52.889057 52.889057 0 0 1 14.387132-28.774263 55.014429 55.014429 0 0 1 30.327419-15.204582 264.200052 264.200052 0 0 1 51.908117-3.188058h128.503243a357.716407 357.716407 0 0 1 108.557447 13.569681 209.349113 209.349113 0 0 1 112.562955 83.379967 332.538927 332.538927 0 0 1 51.908117 197.986549z m-120.573972-1.634902a230.92981 230.92981 0 0 0-50.273215-162.01872 116.650209 116.650209 0 0 0-49.455765-31.14487 321.748578 321.748578 0 0 0-83.788692-8.174506h-79.456204v402.512703h90.982258a183.844652 183.844652 0 0 0 107.739997-25.586206 201.992057 201.992057 0 0 0 63.842896-175.588401z"
                      fill="#FFFFFF"
                      p-id="41916"
                    ></path>
                  </svg>