    <svg
          t="1699192784596"
          class="icon arco-icon cursor-pointer"
          viewBox="0 0 1024 1024"
          version="1.1"
          xmlns="http://www.w3.org/2000/svg"
          p-id="8911"
          width="32"
          height="32"
        >
          <path
            d="M568.6912 38.4C699.712 38.4 806.4 143.0784 806.4 272.8064c0 23.7824-19.0976 43.0592-42.6624 43.0592-21.888 0-39.9232-16.6272-42.3808-38.0416l-0.2944-5.0176c0-78.8992-63.488-143.8336-144-148.0832l-8.3712-0.2176H276.096c-81.6 0-147.8272 62.3104-152.1536 140.1856l-0.2176 8.1152v478.3872c0 78.8992 63.488 143.8336 144 148.0832l8.3712 0.2176H568.704c81.6 0 147.8272-62.3104 152.1536-140.1856l0.2176-8.1152c0-23.7824 19.1104-43.0592 42.6752-43.0592 23.552 0 42.6624 19.2768 42.6624 43.0592 0 126.6432-101.6704 229.4016-228.4032 234.24L568.704 985.6H276.096C148.224 985.6 43.4944 885.8496 38.5792 760.4096L38.4 751.1936V272.8064c0-126.6432 101.6704-229.4016 228.4032-234.24L276.096 38.4H568.704z"
            fill="#1F1F1F"
            p-id="8912"
          ></path>
          <path
            d="M823.1424 371.2c5.12 0 10.0864 1.9712 14.1696 5.632l126.0288 112.64c10.4448 9.3312 12.5568 26.9824 4.736 39.424-1.344 2.1376-2.944 4.032-4.736 5.632l-126.0288 112.64c-10.432 9.3312-25.2416 6.8096-33.0752-5.632a31.872 31.872 0 0 1-4.736-16.896v-65.7536l-346.5728 0.0512C428.992 558.9376 409.6 537.92 409.6 512s19.392-46.9376 43.328-46.9376l346.5856-0.0384V399.36c0-15.552 10.5728-28.16 23.6288-28.16z"
            fill="#455CED"
            p-id="8913"
          ></path>
        </svg>